<?xml version="1.0" standalone="no"?>
<!DOCTYPE svg PUBLIC "-//W3C//DTD SVG 20010904//EN"
 "http://www.w3.org/TR/2001/REC-SVG-20010904/DTD/svg10.dtd">
<svg version="1.0" xmlns="http://www.w3.org/2000/svg"
 width="800.000000pt" height="800.000000pt" viewBox="0 0 800.000000 800.000000"
 preserveAspectRatio="xMidYMid meet">
<metadata>
Created by potrace 1.14, written by Peter Selinger 2001-2017
</metadata>
<g transform="translate(0.000000,800.000000) scale(0.100000,-0.100000)"
fill="#000000" stroke="none">
<path d="M0 4195 c0 -2093 2 -3805 5 -3805 4 0 48 92 74 155 46 110 180 354
211 385 3 3 12 17 20 32 18 32 89 116 145 172 22 22 39 46 37 54 -2 10 2 13
12 9 9 -4 13 -1 10 6 -3 10 9 13 45 11 28 -1 49 2 48 5 -2 3 -9 18 -17 33 -7
16 -11 29 -9 31 58 46 116 82 205 126 60 29 117 57 126 62 10 5 22 9 28 9 9 0
103 40 142 61 10 5 23 9 28 9 6 0 36 16 66 35 30 19 57 35 59 35 3 0 36 20 75
45 39 25 73 45 76 45 3 0 20 11 38 25 18 14 38 25 44 25 7 0 12 4 12 8 0 4 17
14 38 21 20 8 43 18 51 24 7 6 48 29 91 52 112 57 121 68 148 165 13 47 29 96
35 110 21 45 140 154 200 183 31 16 57 32 57 36 0 4 51 42 113 86 61 43 130
94 151 112 22 18 45 33 52 33 7 0 14 4 16 9 6 15 87 61 92 52 3 -5 -25 -34
-63 -65 -70 -57 -118 -107 -179 -183 -31 -38 -39 -42 -90 -48 -96 -10 -102
-13 -102 -41 0 -17 -16 -39 -51 -72 -56 -50 -123 -149 -153 -222 -10 -25 -22
-53 -27 -63 -5 -9 -12 -43 -15 -75 -5 -51 -3 -63 25 -116 18 -33 28 -63 24
-66 -16 -14 -80 -30 -96 -24 -24 9 -21 42 8 80 25 32 34 84 15 84 -11 0 -80
-37 -94 -51 -6 -5 -23 -9 -40 -9 -16 0 -43 -4 -60 -10 -17 -5 -52 -12 -77 -15
-43 -5 -46 -8 -47 -36 0 -17 -7 -38 -15 -48 -20 -23 -47 -81 -47 -102 0 -9 -3
-19 -8 -22 -4 -2 0 -1 8 2 21 8 259 13 287 6 20 -5 22 -10 17 -33 -4 -15 -10
-31 -14 -37 -6 -8 -37 -107 -70 -220 -8 -30 -29 -133 -50 -249 -5 -33 -10 -74
-10 -93 0 -42 -23 -53 -130 -64 -41 -5 -111 -14 -155 -21 l-80 -13 -7 -45
c-12 -77 -28 -429 -28 -609 l0 -171 269 0 270 0 4 42 4 43 1 -42 2 -43 125 0
c92 0 127 3 129 13 5 18 36 163 48 222 14 72 59 238 67 250 4 6 13 30 21 55 7
25 23 77 35 115 12 39 32 104 44 145 12 41 28 91 36 110 8 19 19 51 24 70 6
19 22 71 36 115 14 44 25 84 25 91 0 6 9 19 20 29 23 21 18 35 -15 35 -13 0
-31 3 -40 6 -21 8 -38 53 -27 68 5 6 16 36 26 67 9 31 26 66 37 77 13 15 19
35 19 70 0 37 10 68 45 136 24 48 60 109 80 136 19 26 35 52 35 58 0 19 90
182 131 240 24 31 73 88 111 126 37 38 68 72 68 76 0 4 19 20 41 35 39 25 42
26 37 7 -3 -12 -1 -23 5 -25 12 -4 15 -135 5 -153 -3 -5 -8 -65 -12 -134 -5
-106 -4 -134 12 -183 10 -31 21 -54 25 -50 4 3 20 -5 35 -19 15 -14 36 -28 47
-31 11 -2 28 -8 37 -12 16 -6 17 -3 12 24 -6 27 -4 31 14 31 11 0 32 -13 45
-30 14 -16 30 -30 34 -30 12 0 107 -112 212 -250 19 -25 78 -87 130 -137 157
-152 162 -157 173 -176 15 -29 1 -32 -45 -10 -23 12 -60 26 -82 33 -65 21 -76
25 -180 76 -55 26 -121 63 -146 81 -26 18 -50 33 -53 33 -9 0 -80 53 -84 63
-2 4 -8 7 -13 7 -12 0 -49 37 -49 49 0 5 -9 13 -20 16 -11 3 -26 12 -33 19
-23 23 -54 28 -61 10 -3 -8 -3 -22 1 -29 13 -21 91 -79 218 -162 66 -42 122
-80 125 -83 5 -5 135 -66 200 -93 19 -8 64 -28 100 -44 36 -16 85 -35 110 -42
25 -7 59 -17 76 -22 17 -5 41 -9 53 -9 13 0 35 -9 51 -20 15 -11 30 -17 32
-14 3 3 88 6 189 8 101 1 222 8 269 14 47 7 100 13 118 16 29 3 81 41 70 51
-2 2 -44 -3 -93 -11 -97 -15 -363 -35 -392 -28 -10 2 -70 5 -134 7 -63 2 -121
7 -127 11 -7 4 -12 16 -12 27 0 10 -4 19 -9 19 -18 0 -181 172 -181 191 0 16
-4 19 -21 14 -15 -5 -19 -3 -17 8 2 7 -8 26 -22 42 -49 54 -75 81 -95 95 -24
18 -75 85 -75 98 0 18 -80 112 -95 112 -9 0 -15 10 -15 25 0 14 -4 25 -10 25
-5 0 -10 5 -10 11 0 6 7 9 15 6 25 -10 25 8 -1 36 -25 27 -31 52 -15 61 5 3
11 -1 15 -9 6 -16 36 -21 36 -7 0 5 17 6 38 3 28 -5 38 -11 40 -29 3 -17 10
-22 32 -22 39 0 60 -9 60 -27 0 -12 7 -14 31 -9 17 3 53 6 80 6 42 0 49 3 49
19 0 18 -5 19 -55 14 -59 -6 -62 -3 -57 59 2 21 -18 24 -37 6 -11 -11 -13 -10
-8 4 4 12 2 15 -7 12 -17 -6 -47 33 -40 51 3 7 -3 16 -14 19 -56 18 -48 59 13
70 19 4 35 12 35 18 0 5 7 8 15 5 8 -4 38 0 67 8 36 9 57 10 65 3 8 -6 23 -6
47 3 28 10 59 9 168 -3 114 -14 135 -14 148 -2 12 12 10 18 -22 48 l-36 34 24
12 c15 8 47 11 92 8 56 -4 74 -2 93 13 13 9 27 15 31 13 5 -3 17 -2 28 1 l20
6 -20 26 c-16 20 -18 29 -8 40 9 11 9 16 -2 23 -8 5 -11 12 -8 15 10 10 28 -4
28 -21 0 -8 4 -14 10 -14 5 0 8 13 7 29 -1 20 -9 32 -22 36 -17 5 -16 7 14 20
42 19 51 19 51 0 0 -8 -6 -15 -13 -15 -8 0 -14 -7 -14 -15 0 -8 4 -12 9 -9 4
3 8 0 8 -5 0 -6 5 -11 10 -11 6 0 10 7 10 15 0 8 7 15 15 15 8 0 15 -4 15 -9
0 -5 13 -6 33 0 17 4 44 11 59 14 30 6 60 46 40 53 -8 2 -6 9 4 19 12 13 18
13 24 4 10 -18 46 -9 42 11 -2 11 8 18 33 22 19 4 38 14 43 23 7 12 20 15 54
11 38 -4 47 -2 58 15 9 15 10 22 1 25 -19 6 -12 22 10 22 16 0 19 4 14 20 -9
29 20 70 50 70 13 0 31 10 40 23 12 17 17 19 24 8 11 -16 16 -7 25 41 4 24 13
38 21 38 8 0 15 6 15 14 0 10 7 13 20 11 11 -2 18 0 15 6 -4 5 1 17 10 26 16
16 18 15 27 -1 9 -16 11 -15 24 9 18 36 18 49 -2 41 -8 -3 -2 8 14 24 17 16
34 44 37 62 4 18 20 45 36 61 16 16 29 34 29 42 0 7 6 15 13 18 7 3 22 41 32
86 10 44 22 78 26 76 4 -3 14 1 21 8 18 18 31 4 43 -48 11 -42 7 -40 165 -113
19 -9 65 -36 103 -59 37 -24 72 -43 77 -43 6 0 10 -4 10 -10 0 -5 9 -10 19
-10 11 0 21 -4 23 -9 4 -11 165 -111 178 -111 5 0 10 -4 10 -10 0 -5 4 -10 9
-10 13 0 161 -91 208 -127 21 -17 49 -36 62 -43 13 -7 52 -38 86 -70 35 -32
81 -70 104 -84 22 -14 48 -38 58 -53 21 -31 62 -78 156 -178 57 -61 77 -76
125 -90 31 -10 68 -30 82 -44 14 -14 32 -27 40 -27 8 -1 49 -20 90 -43 127
-69 167 -86 220 -97 46 -9 133 -49 150 -69 7 -8 16 -15 21 -15 20 0 187 -89
214 -114 16 -15 35 -24 43 -21 9 3 12 -1 7 -15 -7 -23 -2 -25 26 -7 17 10 22
9 33 -5 7 -10 21 -18 30 -18 9 0 16 -4 16 -10 0 -5 9 -10 19 -10 10 0 22 -7
25 -15 3 -9 13 -15 22 -13 9 2 19 -3 22 -11 4 -11 -2 -12 -24 -7 -16 4 -36 13
-44 20 -29 23 -101 58 -107 52 -4 -4 12 -24 35 -47 58 -55 98 -145 105 -239 6
-70 -10 -277 -34 -430 -5 -36 -13 -92 -18 -125 -9 -65 -40 -215 -47 -227 -3
-4 2 -47 10 -95 8 -48 19 -142 25 -208 6 -66 17 -164 23 -217 l12 -98 123 0
123 0 36 76 36 76 -24 16 c-12 9 -39 32 -58 50 -19 19 -45 41 -57 49 -15 10
-23 25 -23 44 0 29 -3 31 -94 68 -27 11 -28 14 -21 59 3 26 10 61 15 77 10 30
44 165 61 240 14 58 40 241 65 452 5 41 24 57 39 33 3 -6 14 -10 24 -10 10 0
48 -29 86 -65 37 -36 71 -65 76 -65 5 0 9 58 9 129 0 102 -3 131 -15 141 -8 7
-15 19 -15 26 0 8 -6 14 -12 14 -7 0 -29 14 -48 30 -19 16 -37 30 -40 31 -3 0
-26 2 -51 3 -33 1 -56 9 -82 29 -20 15 -40 27 -46 27 -6 0 -11 6 -11 13 0 7
-10 18 -21 25 l-21 14 22 15 c19 13 24 13 31 2 5 -8 9 -20 9 -26 0 -7 5 -13
10 -13 6 0 10 7 10 14 0 12 9 10 43 -7 23 -12 47 -26 54 -32 7 -5 19 -16 27
-22 8 -7 20 -13 26 -13 5 0 10 -4 10 -9 0 -5 13 -14 28 -20 15 -7 40 -23 55
-36 14 -14 29 -25 32 -25 3 0 5 1483 5 3295 l0 3295 -4000 0 -4000 0 0 -3805z
m3790 3158 c16 -17 15 -19 -20 -29 -47 -14 -167 -18 -174 -5 -8 12 9 23 59 38
62 17 116 16 135 -4z m640 -83 c14 -5 44 -12 68 -15 23 -4 42 -11 42 -16 0 -5
-4 -9 -10 -9 -5 0 -7 -7 -4 -15 4 -9 18 -15 38 -14 28 0 29 1 9 9 -30 12 -29
20 2 20 15 0 25 -6 25 -14 0 -9 7 -12 20 -9 14 4 20 0 20 -11 0 -9 -7 -16 -15
-16 -8 0 -20 -9 -27 -19 -9 -14 -16 -17 -24 -10 -7 6 -35 12 -61 13 -27 1 -53
5 -59 8 -12 7 -160 2 -173 -7 -17 -10 -2 -27 19 -20 12 4 26 -4 43 -25 14 -16
31 -30 38 -30 7 0 10 -3 6 -6 -3 -4 -27 3 -52 15 -24 11 -51 21 -58 21 -22 0
-88 35 -81 43 4 4 23 7 41 7 20 0 32 4 28 10 -17 27 -135 -9 -135 -41 0 -6 -7
-9 -15 -5 -8 3 -23 -4 -34 -15 -21 -23 -89 -42 -106 -30 -5 4 -33 8 -62 9 -42
2 -55 -1 -71 -19 -11 -11 -24 -19 -29 -16 -16 10 -73 -21 -67 -37 4 -11 -3
-14 -33 -13 -67 1 -228 -15 -237 -24 -6 -5 -21 -9 -34 -9 -20 0 -23 -4 -19
-21 5 -18 3 -20 -21 -13 -81 22 -192 3 -178 -31 2 -7 -2 -19 -10 -26 -11 -9
-12 -15 -3 -25 9 -11 8 -14 -5 -14 -9 0 -16 8 -16 18 -1 16 -2 16 -15 -2 -11
-14 -21 -17 -49 -12 -21 4 -37 2 -41 -5 -10 -15 -56 -2 -73 22 -18 26 -30 24
-34 -7 -4 -36 -31 -53 -58 -36 -27 17 -33 15 -27 -7 8 -33 -5 -41 -52 -30 -34
8 -46 7 -53 -3 -6 -9 -7 -6 -3 9 5 17 2 20 -13 16 -20 -5 -42 -42 -42 -68 0
-17 31 -20 47 -4 7 7 12 4 16 -10 3 -11 -2 -26 -12 -34 -23 -21 -85 -39 -106
-31 -16 7 -17 2 -13 -43 5 -48 3 -53 -32 -87 -35 -33 -40 -35 -101 -34 -36 0
-75 -4 -86 -11 -28 -15 -33 -14 -33 4 0 9 19 25 43 35 23 11 38 20 33 20 -5 0
-1 9 9 20 14 15 21 17 26 8 10 -16 42 10 35 28 -6 16 20 39 66 58 59 25 67 84
16 126 -40 34 -30 50 32 50 58 0 70 14 60 71 -7 35 -5 39 14 39 36 0 118 34
140 58 11 13 29 33 39 43 12 13 31 19 61 19 25 0 48 5 51 10 9 15 41 12 55 -5
7 -9 27 -14 49 -14 29 2 31 3 9 6 -31 5 -55 30 -42 43 5 5 59 14 119 20 138
13 162 18 168 34 3 7 26 16 52 18 26 3 56 14 68 26 26 23 74 39 142 46 28 3
65 10 83 17 18 6 38 9 45 6 7 -2 30 -2 51 2 58 9 567 2 596 -9z m-630 -249 c0
-14 -18 -23 -31 -15 -8 4 -7 9 2 15 18 11 29 11 29 0z m-218 -137 c27 -5 37
-12 40 -29 5 -22 3 -23 -60 -19 -78 5 -88 10 -66 35 18 20 29 22 86 13z m1498
-34 c0 -5 -2 -10 -4 -10 -3 0 -8 5 -11 10 -3 6 -1 10 4 10 6 0 11 -4 11 -10z
m-2530 -14 c0 -9 -30 -14 -35 -6 -4 6 3 10 14 10 12 0 21 -2 21 -4z m403 -143
c-7 -2 -21 -2 -30 0 -10 3 -4 5 12 5 17 0 24 -2 18 -5z m-413 -293 c0 -11 -4
-20 -10 -20 -5 0 -10 9 -10 20 0 11 5 20 10 20 6 0 10 -9 10 -20z m2808 -13
c5 -24 -15 -21 -21 4 -3 13 -1 19 6 16 7 -2 13 -11 15 -20z m40 -57 c8 -13 10
-34 6 -55 -5 -31 -3 -35 35 -59 22 -14 45 -26 51 -26 13 0 13 -17 0 -22 -5 -1
-12 -17 -16 -34 -5 -24 0 -36 23 -61 39 -41 32 -78 -15 -78 -18 -1 -32 3 -32
7 0 4 9 8 19 8 32 0 14 39 -23 49 -17 4 -30 14 -28 21 4 16 -27 50 -46 50 -11
0 -12 3 -2 15 7 8 9 23 4 37 -4 13 -7 33 -5 46 1 13 -2 29 -8 36 -6 7 -9 24
-7 37 3 13 5 30 5 37 1 19 25 14 39 -8z m-600 -201 c76 -13 135 -43 183 -94
18 -19 40 -35 49 -35 24 -1 56 -32 77 -75 17 -34 20 -63 21 -187 1 -103 6
-166 17 -205 14 -52 15 -66 2 -128 -13 -63 -13 -73 3 -110 10 -23 21 -61 25
-85 3 -25 15 -76 26 -115 10 -38 23 -126 28 -195 6 -69 18 -204 28 -300 18
-179 19 -326 3 -345 -5 -6 -7 -23 -4 -38 2 -15 1 -27 -4 -27 -5 0 -8 -30 -8
-66 1 -58 -2 -68 -24 -86 -19 -16 -25 -31 -28 -71 -3 -50 -22 -94 -22 -51 0
34 -11 35 -41 4 -31 -30 -30 -43 3 -108 9 -17 9 -25 0 -34 -9 -9 -12 -7 -12
10 0 12 -4 22 -10 22 -5 0 -10 -12 -10 -26 0 -14 -4 -23 -9 -20 -5 4 -11 1
-13 -5 -3 -9 -12 -9 -33 -2 -23 7 -32 6 -47 -9 -22 -22 -23 -28 -3 -28 16 0
20 -16 6 -24 -5 -3 -14 1 -21 9 -6 7 -19 11 -28 8 -10 -3 -13 -2 -6 4 13 10
26 43 16 43 -14 0 -59 -55 -65 -81 -10 -39 -41 -71 -55 -57 -9 9 -15 7 -26 -8
-8 -10 -12 -21 -9 -24 3 -3 8 1 10 8 8 20 26 13 20 -8 -3 -13 1 -24 13 -30 21
-11 16 -64 -6 -56 -8 3 -11 0 -7 -11 5 -12 1 -14 -15 -8 -12 3 -22 2 -22 -3 0
-5 -10 -12 -22 -15 -18 -5 -19 -8 -8 -21 10 -13 10 -19 0 -31 -17 -20 -40 -19
-38 3 2 32 -2 52 -12 52 -6 0 -14 -8 -17 -17 -9 -25 -23 -33 -57 -33 -24 0
-27 -2 -16 -15 17 -21 -2 -67 -24 -59 -9 3 -20 -3 -28 -15 -7 -12 -18 -21 -24
-21 -17 0 -24 -36 -10 -50 8 -9 5 -11 -14 -8 -22 3 -25 0 -22 -22 3 -20 1 -23
-9 -13 -10 10 -19 5 -46 -25 -18 -20 -32 -41 -30 -47 2 -5 -5 -18 -15 -28 -16
-15 -19 -15 -24 -3 -5 12 -11 13 -30 4 -13 -6 -24 -16 -24 -23 0 -19 -21 -33
-41 -28 -10 3 -19 11 -19 19 0 7 -4 15 -9 18 -17 11 -41 -6 -41 -29 0 -12 -7
-28 -15 -35 -8 -7 -15 -22 -15 -34 -1 -17 -2 -18 -10 -5 -10 17 -9 37 3 57 5
7 4 12 -2 12 -6 0 -11 6 -11 14 0 8 -6 16 -14 19 -8 3 -14 14 -14 24 0 10 -3
31 -7 47 -7 25 -5 28 8 23 9 -3 19 -2 22 3 4 6 -1 10 -9 10 -27 0 -19 37 9 44
14 4 30 4 34 1 14 -8 20 21 8 35 -9 10 -7 11 9 6 20 -6 21 -2 23 53 2 71 9 67
-144 76 -190 11 -394 48 -410 75 -3 5 -12 7 -20 4 -8 -4 -18 1 -21 10 -3 9
-12 16 -20 16 -7 0 -17 7 -22 16 -7 13 -13 14 -31 5 -18 -10 -21 -9 -21 8 0
24 -16 36 -24 19 -3 -7 -4 -1 -2 15 2 15 0 27 -5 27 -4 0 -16 3 -26 6 -16 5
-16 4 -2 -8 9 -7 22 -38 30 -68 14 -58 25 -73 48 -65 27 10 48 -4 44 -29 -4
-18 -10 -22 -26 -18 -22 5 -22 5 -3 -16 14 -17 16 -25 7 -35 -16 -20 -6 -96
16 -113 10 -8 29 -12 42 -10 14 2 30 -2 38 -9 17 -18 17 -26 -2 -19 -8 4 -15
1 -15 -5 0 -6 9 -11 20 -11 27 0 25 -19 -3 -29 -13 -5 -31 -17 -40 -26 -18
-18 -37 -12 -37 10 0 9 -6 12 -15 9 -9 -4 -15 0 -15 10 0 9 -6 16 -13 16 -8 0
-22 9 -31 19 -16 17 -16 22 -3 43 13 21 12 25 -4 40 -10 10 -21 13 -24 8 -11
-18 -26 -10 -20 9 3 11 -1 25 -9 33 -8 8 -16 25 -18 38 -2 16 -11 26 -28 30
-17 4 -28 16 -35 38 -5 18 -16 32 -23 32 -22 0 -69 69 -63 93 1 5 -3 6 -9 2
-6 -3 -8 -10 -6 -14 3 -4 -4 -8 -15 -8 -10 -1 -19 2 -19 8 0 5 4 9 8 9 16 0 6
82 -11 91 -21 12 -22 29 -2 29 9 0 15 9 15 23 0 33 38 72 55 57 7 -6 33 -10
57 -9 48 2 93 -18 93 -41 0 -9 11 -16 25 -18 14 -2 36 -12 50 -23 23 -19 23
-20 4 -16 -19 4 -21 1 -15 -22 6 -20 15 -27 42 -31 25 -4 34 -10 35 -25 2 -39
5 -40 19 -8 10 23 19 31 29 27 11 -4 16 0 16 10 0 9 -8 16 -19 16 -28 0 -37
20 -12 27 19 5 16 8 -19 25 -36 18 -53 38 -31 38 4 0 6 23 3 50 -5 53 1 59 35
35 20 -14 22 -14 28 6 6 18 12 20 43 14 21 -3 53 -8 73 -9 47 -5 82 -16 92
-30 6 -8 10 -8 14 2 2 6 15 12 28 12 39 0 38 18 0 26 -25 4 -33 10 -26 17 7 7
5 14 -7 23 -15 11 -14 14 13 35 55 44 137 27 107 -22 -16 -25 -15 -29 4 -29 8
0 12 -4 9 -10 -3 -5 3 -10 15 -10 11 0 23 -7 27 -16 5 -13 10 -11 29 11 13 15
38 35 56 44 24 12 32 22 31 39 -3 22 -2 22 22 6 14 -9 22 -20 19 -26 -3 -5 0
-15 6 -23 6 -8 9 -19 5 -25 -3 -5 -1 -10 5 -10 6 0 8 -5 4 -12 -4 -6 -3 -8 3
-5 6 4 23 0 39 -8 28 -14 44 -12 44 6 0 5 -7 9 -15 9 -8 0 -15 6 -15 13 0 14
35 47 49 47 6 0 13 9 16 20 9 29 43 26 51 -5 4 -18 10 -23 18 -16 6 5 17 6 24
2 14 -8 -15 -39 -55 -60 -19 -10 -21 -15 -12 -29 9 -14 8 -26 -5 -50 -9 -17
-16 -33 -16 -37 0 -12 37 -3 60 15 14 11 36 20 48 20 13 0 37 9 53 21 47 33
109 6 109 -47 0 -13 11 -47 25 -76 14 -28 25 -62 25 -75 0 -13 5 -23 10 -23 6
0 10 28 10 64 0 37 5 68 11 72 23 14 51 95 45 132 -3 20 -6 53 -8 72 -1 19
-12 49 -25 67 -13 17 -23 36 -23 42 0 6 -4 11 -9 11 -5 0 -22 11 -38 24 -16
13 -47 28 -68 31 -22 4 -49 15 -60 24 -42 35 -99 52 -123 37 -8 -5 -18 -4 -25
3 -6 6 -21 11 -34 11 -17 0 -21 4 -17 18 4 12 3 14 -4 4 -7 -10 -17 -11 -43
-4 -24 7 -28 10 -12 11 12 1 25 6 28 12 4 5 18 14 31 19 13 5 24 17 24 26 0
14 -8 16 -47 10 -116 -15 -138 -21 -141 -39 -3 -16 1 -18 27 -12 25 5 30 4 25
-8 -3 -8 -16 -20 -30 -27 -13 -7 -24 -17 -24 -21 0 -4 -51 -6 -112 -4 l-113 4
-28 33 c-53 62 -80 88 -93 88 -6 0 -15 7 -18 16 -5 13 -9 14 -20 5 -21 -18
-126 -3 -153 22 -20 17 -23 31 -23 89 0 51 -3 68 -14 68 -8 0 -17 -6 -20 -12
-3 -7 -15 -26 -26 -43 -42 -64 -44 -72 -26 -109 16 -33 16 -38 0 -68 -19 -38
-59 -78 -77 -78 -7 0 -24 -6 -39 -14 -16 -9 -30 -10 -35 -5 -6 6 -30 0 -64
-17 -63 -31 -99 -61 -99 -83 0 -9 -11 -36 -25 -60 -14 -23 -25 -56 -25 -72 0
-28 -9 -36 -42 -43 -7 -2 -21 -6 -30 -11 -27 -11 -48 1 -48 28 0 15 -8 28 -22
34 -15 7 -22 19 -23 39 0 22 -4 28 -18 26 -15 -3 -18 2 -16 30 2 18 0 39 -4
45 -4 6 -3 14 2 17 5 4 7 23 4 44 -3 20 -5 54 -4 75 0 20 -4 37 -9 37 -6 0
-10 18 -10 39 0 22 -4 42 -9 45 -5 4 -1 22 9 43 20 41 16 69 -11 84 -11 5 -19
16 -19 23 0 7 -7 27 -16 45 -9 18 -14 44 -11 59 3 15 10 54 17 87 6 33 12 69
14 81 1 11 11 30 22 42 l21 22 18 -20 c16 -18 26 -20 77 -14 39 4 58 3 58 -4
0 -6 -5 -14 -10 -17 -13 -8 -3 -25 14 -25 8 0 34 9 60 20 l46 21 -21 29 c-27
36 -20 56 22 65 19 4 41 12 51 18 12 8 23 8 40 -2 18 -9 35 -9 68 -2 25 6 59
11 77 11 27 0 32 4 38 33 10 43 20 47 67 28 28 -11 41 -23 44 -42 5 -21 12
-26 46 -28 22 -1 46 3 54 10 21 17 29 3 16 -26 -10 -21 -8 -26 9 -38 16 -12
18 -19 9 -41 -7 -20 -6 -35 7 -61 16 -33 16 -36 0 -48 -16 -11 -16 -14 -3 -32
16 -20 16 -20 22 2 3 13 10 21 14 18 8 -5 12 -49 13 -147 0 -26 4 -45 9 -42 4
3 8 20 8 39 0 18 5 35 11 37 13 4 30 76 19 83 -4 3 -13 26 -19 52 -10 41 -9
59 9 123 42 153 42 155 14 218 -18 38 -49 80 -95 125 -38 37 -69 75 -69 85 0
9 -4 22 -8 28 -9 15 -97 37 -142 36 -19 -1 -58 -1 -85 -1 -35 0 -65 -8 -98
-26 -59 -31 -83 -32 -98 -4 -9 19 -17 21 -55 15 -24 -3 -46 -1 -49 4 -3 6 -22
10 -41 10 -39 0 -45 19 -15 49 11 11 22 32 24 48 3 15 11 43 17 61 11 30 10
35 -8 48 -26 18 -46 101 -40 164 3 27 21 82 40 122 19 40 38 84 42 98 11 45
44 74 80 72 26 -2 35 3 44 23 10 22 28 30 54 26 4 0 27 6 50 13 63 21 250 36
348 27 92 -8 177 3 303 38 41 12 100 20 138 20 36 0 84 4 105 10 50 13 112 21
215 26 46 3 113 9 149 13 36 5 71 7 78 6 7 -2 43 -9 80 -15z m-2321 -101 c-3
-8 -6 -5 -6 6 -1 11 2 17 5 13 3 -3 4 -12 1 -19z m946 -893 c112 -4 120 -5
142 -29 13 -14 31 -26 40 -26 8 0 15 -4 15 -10 0 -5 -13 -7 -30 -4 -17 4 -36
2 -43 -5 -8 -6 -17 -8 -21 -4 -10 10 -99 4 -111 -8 -13 -13 12 -29 45 -29 14
0 38 -7 54 -15 15 -8 38 -15 50 -15 28 0 117 -43 135 -64 29 -35 -16 -27 -52
8 -21 22 -158 66 -204 66 -33 0 -41 3 -39 18 1 14 -7 17 -49 15 -58 -1 -115
-12 -130 -23 -5 -5 -28 -11 -50 -15 -22 -4 -50 -13 -61 -20 -24 -16 -44 -3
-44 26 0 10 -4 21 -10 24 -5 3 -10 13 -10 22 0 13 3 13 15 3 13 -11 15 -8 15
19 0 19 5 31 14 31 7 0 24 9 37 19 31 24 62 30 124 24 28 -3 103 -6 168 -8z
m2 -175 c3 -5 -1 -10 -9 -10 -9 0 -16 5 -16 10 0 6 4 10 9 10 6 0 13 -4 16
-10z m2187 -3 c37 -19 52 -37 81 -99 23 -48 27 -70 27 -142 0 -47 -4 -88 -10
-91 -5 -3 -10 -15 -10 -25 0 -11 -12 -45 -26 -77 -47 -104 -62 -152 -84 -258
-7 -33 -16 -69 -20 -80 -4 -11 -20 -59 -36 -107 -31 -98 -68 -151 -122 -173
-53 -23 -58 -12 -43 107 7 57 12 110 11 118 -1 8 -3 62 -4 120 -2 58 -8 184
-14 280 l-11 174 24 54 c14 30 25 59 25 64 0 6 9 22 19 37 11 15 23 39 26 54
4 15 17 34 28 42 26 18 106 20 139 2z m-3132 -66 c0 -28 -2 -29 -35 -24 -31 5
-35 3 -41 -22 -8 -33 2 -169 15 -193 14 -28 24 -125 11 -117 -5 3 -10 17 -10
30 0 13 -4 27 -10 30 -5 3 -10 17 -10 31 0 14 -6 37 -13 52 -15 33 -14 185 2
190 6 2 11 12 11 21 0 25 9 31 47 31 30 0 33 -3 33 -29z m110 -200 c0 -3 -5
-13 -10 -21 -12 -19 -33 0 -25 23 6 14 35 13 35 -2z m30 -97 c0 -8 -6 -15 -12
-15 -28 -3 -34 -5 -55 -19 -18 -12 -23 -24 -23 -59 0 -24 -3 -41 -7 -37 -12
12 -3 89 14 114 10 16 21 22 34 19 12 -3 22 0 26 9 6 17 23 9 23 -12z m-163
-106 c-3 -8 -6 -5 -6 6 -1 11 2 17 5 13 3 -3 4 -12 1 -19z m183 -598 c0 -5 -2
-10 -4 -10 -3 0 -8 5 -11 10 -3 6 -1 10 4 10 6 0 11 -4 11 -10z m2540 -629
c-7 -11 -9 -3 -9 29 1 42 1 43 9 16 6 -17 5 -36 0 -45z m-1080 -95 c0 -3 -4
-8 -10 -11 -5 -3 -10 -1 -10 4 0 6 5 11 10 11 6 0 10 -2 10 -4z m40 -137 c0
-11 -4 -18 -10 -14 -5 3 -7 12 -3 20 7 21 13 19 13 -6z m190 -1 c0 -10 -4 -18
-10 -18 -5 0 -10 6 -10 14 0 8 -8 17 -17 19 -10 3 -6 4 10 4 19 -1 27 -7 27
-19z m-1495 -198 c-3 -5 -10 -10 -16 -10 -5 0 -9 5 -9 10 0 6 7 10 16 10 8 0
12 -4 9 -10z m-135 -65 c0 -15 -66 -68 -102 -81 -9 -3 -19 -13 -22 -21 -3 -8
-11 -11 -17 -8 -11 7 22 45 39 45 5 0 19 11 32 25 13 14 29 25 37 25 7 0 13 5
13 10 0 6 5 10 10 10 6 0 10 -2 10 -5z m108 -216 c34 -6 62 -14 62 -17 0 -2
-15 -21 -32 -41 -18 -21 -44 -51 -57 -67 -13 -16 -48 -55 -77 -87 -60 -64
-114 -152 -190 -307 -28 -58 -81 -151 -117 -207 -36 -56 -76 -123 -87 -148
-34 -74 -80 -192 -80 -205 0 -9 -21 -48 -38 -70 -1 -2 -7 2 -12 10 -6 10 -10
7 -16 -16 -4 -16 -21 -65 -39 -109 -17 -44 -49 -143 -70 -220 -21 -77 -42
-144 -47 -149 -4 -6 -8 -19 -8 -31 0 -12 -4 -25 -9 -31 -11 -12 -29 -63 -53
-154 -23 -89 -30 -116 -53 -195 -9 -33 -21 -76 -25 -95 -7 -32 -21 -81 -51
-180 -6 -19 -13 -52 -16 -73 -3 -20 -9 -40 -14 -43 -12 -7 -12 92 0 153 5 26
15 109 21 183 6 74 18 164 25 200 8 36 17 93 21 128 l7 63 -27 -11 c-52 -20
-59 -15 -53 37 12 101 38 260 51 303 7 25 19 70 25 100 7 30 16 66 21 80 4 14
16 53 25 87 17 58 19 62 54 68 74 12 90 24 106 77 8 28 22 56 32 63 15 11 15
13 -5 19 -32 11 -22 45 50 163 13 21 32 55 43 76 11 21 28 47 38 57 9 11 17
22 17 26 0 4 10 21 23 38 13 17 38 63 56 101 19 39 46 84 62 102 15 18 47 60
70 94 l41 61 44 -5 c49 -5 72 10 100 66 38 75 79 126 99 122 11 -2 48 -9 83
-16z m1547 -179 c3 -5 -1 -10 -9 -10 -9 0 -16 5 -16 10 0 6 4 10 9 10 6 0 13
-4 16 -10z m-1348 -222 c-3 -8 -6 -5 -6 6 -1 11 2 17 5 13 3 -3 4 -12 1 -19z
m173 -289 c0 -5 -4 -9 -10 -9 -5 0 -10 7 -10 16 0 8 5 12 10 9 6 -3 10 -10 10
-16z m-2605 -618 c-3 -6 -11 -11 -16 -11 -5 0 -4 6 3 14 14 16 24 13 13 -3z"/>
<path d="M4490 7200 c0 -5 5 -10 10 -10 6 0 10 5 10 10 0 6 -4 10 -10 10 -5 0
-10 -4 -10 -10z"/>
<path d="M3691 7181 c-11 -7 -9 -10 8 -16 25 -8 64 3 56 16 -8 11 -46 12 -64
0z"/>
<path d="M3573 7173 c31 -8 17 -30 -16 -24 -12 2 -67 -32 -67 -42 0 -4 22 -6
49 -4 34 3 59 12 79 29 l30 25 -32 11 c-18 7 -39 11 -47 11 -9 -1 -8 -3 4 -6z"/>
<path d="M3387 7113 c-4 -3 -7 -13 -7 -22 0 -12 3 -12 12 -3 7 7 20 12 30 12
10 0 18 5 18 10 0 11 -43 14 -53 3z"/>
<path d="M2951 6959 c-29 -34 -31 -40 -16 -45 10 -4 27 -1 39 6 11 7 35 17 51
21 22 5 24 7 9 8 -12 1 -27 7 -33 15 -10 12 -5 16 31 24 l43 10 -45 0 c-40 0
-49 -4 -79 -39z"/>
<path d="M3060 6880 c0 -6 7 -10 15 -10 8 0 15 2 15 4 0 2 -7 6 -15 10 -8 3
-15 1 -15 -4z"/>
<path d="M2826 6853 c-13 -13 -5 -33 14 -33 11 0 20 3 20 6 0 11 -28 33 -34
27z"/>
<path d="M2540 6560 c0 -5 7 -10 16 -10 8 0 12 5 9 10 -3 6 -10 10 -16 10 -5
0 -9 -4 -9 -10z"/>
<path d="M4380 5215 c-19 -7 -44 -14 -55 -14 -34 -2 -98 -71 -65 -71 6 0 10 5
10 10 0 14 27 13 32 -1 9 -27 190 -20 383 13 39 6 91 11 118 10 50 -1 62 12
25 28 -91 37 -374 53 -448 25z"/>
<path d="M4305 5070 c-8 -13 5 -13 25 0 13 8 13 10 -2 10 -9 0 -20 -4 -23 -10z"/>
<path d="M4263 5046 c4 -10 1 -13 -8 -10 -15 6 -41 -29 -47 -61 -2 -15 2 -19
17 -18 31 4 74 -17 80 -38 4 -12 16 -19 30 -19 14 0 29 -9 35 -20 6 -11 20
-20 30 -20 13 0 20 7 20 20 0 11 -4 20 -10 20 -19 0 -10 15 17 28 39 18 53 15
53 -11 0 -28 34 -67 59 -67 10 0 46 3 80 7 55 5 64 9 74 32 15 33 24 40 48 34
21 -6 25 -33 7 -51 -9 -9 -5 -12 19 -12 16 0 43 -4 59 -9 74 -24 82 -23 99 9
15 29 15 30 -26 71 -36 36 -45 40 -77 36 -20 -2 -29 -2 -19 0 9 2 17 9 17 14
0 6 -9 7 -22 3 -30 -10 -72 -6 -76 6 -2 6 -30 10 -63 10 -43 0 -61 4 -65 15
-3 8 -22 19 -42 25 -48 13 -179 13 -187 0 -4 -6 -11 -8 -16 -4 -5 3 -16 1 -24
-6 -11 -9 -16 -7 -25 9 -12 24 -45 29 -37 7z"/>
<path d="M4400 4800 c0 -5 5 -10 11 -10 5 0 7 5 4 10 -3 6 -8 10 -11 10 -2 0
-4 -4 -4 -10z"/>
<path d="M4460 4783 c0 -6 18 -17 40 -26 45 -17 55 -9 12 11 -46 23 -52 24
-52 15z"/>
<path d="M3258 4753 c-35 -5 -37 -33 -3 -33 14 0 25 4 25 10 0 9 9 11 78 10
17 0 32 4 32 10 0 10 -76 11 -132 3z"/>
<path d="M2916 4725 c4 -8 10 -12 15 -9 14 8 10 24 -6 24 -9 0 -12 -6 -9 -15z"/>
<path d="M4560 4730 c0 -5 5 -10 10 -10 6 0 10 5 10 10 0 6 -4 10 -10 10 -5 0
-10 -4 -10 -10z"/>
<path d="M3185 4710 c-19 -8 -19 -9 3 -9 12 -1 22 4 22 9 0 6 -1 10 -2 9 -2 0
-12 -4 -23 -9z"/>
<path d="M3470 4280 c0 -11 5 -20 10 -20 6 0 10 9 10 20 0 11 -4 20 -10 20 -5
0 -10 -9 -10 -20z"/>
<path d="M4345 4200 c-3 -5 -1 -10 4 -10 6 0 11 5 11 10 0 6 -2 10 -4 10 -3 0
-8 -4 -11 -10z"/>
<path d="M4108 3846 c-22 -16 -23 -26 -4 -26 7 0 16 9 19 20 3 11 4 20 4 20
-1 0 -10 -7 -19 -14z"/>
<path d="M3980 3828 c0 -11 28 -10 35 1 3 6 -4 9 -15 8 -11 -1 -20 -5 -20 -9z"/>
<path d="M4162 3829 c2 -6 8 -10 13 -10 5 0 11 4 13 10 2 6 -4 11 -13 11 -9 0
-15 -5 -13 -11z"/>
<path d="M3642 3767 c-16 -27 -18 -38 -8 -46 6 -5 68 -24 136 -41 92 -23 149
-31 216 -32 100 -1 153 14 96 27 -18 3 -32 10 -32 15 0 4 -34 7 -74 7 -66 -1
-78 1 -100 22 -16 15 -29 20 -38 15 -18 -12 -51 -5 -65 13 -9 11 -16 12 -31 4
-27 -14 -49 -5 -66 26 l-13 25 -21 -35z"/>
<path d="M4257 3748 c-25 -27 -30 -29 -45 -16 -15 12 -21 10 -48 -19 -43 -44
-27 -55 48 -32 33 11 70 19 83 19 34 0 37 11 13 48 -11 18 -21 31 -21 31 -1
-1 -15 -15 -30 -31z"/>
<path d="M4830 3640 c0 -5 5 -10 10 -10 6 0 10 5 10 10 0 6 -4 10 -10 10 -5 0
-10 -4 -10 -10z"/>
<path d="M3620 3206 c0 -2 7 -6 15 -10 8 -3 15 -1 15 4 0 6 -7 10 -15 10 -8 0
-15 -2 -15 -4z"/>
<path d="M5550 4875 c0 -8 11 -17 24 -21 13 -3 26 -14 29 -25 3 -10 12 -19 21
-19 22 0 20 11 -10 48 -28 33 -64 43 -64 17z"/>
<path d="M2144 1627 c-8 -23 0 -80 12 -84 11 -4 31 35 36 72 4 24 -39 35 -48
12z"/>
<path d="M2162 1510 c0 -14 2 -19 5 -12 2 6 2 18 0 25 -3 6 -5 1 -5 -13z"/>
<path d="M5227 3043 c-18 -17 -5 -49 26 -65 31 -15 54 -22 161 -49 43 -11 81
-36 161 -107 11 -9 36 -29 55 -42 19 -14 45 -36 58 -50 l24 -25 -18 31 c-9 17
-33 44 -52 60 -20 16 -57 47 -82 69 -54 48 -116 95 -126 95 -4 0 -21 11 -39
24 -17 14 -60 34 -95 45 -73 24 -65 23 -73 14z"/>
<path d="M5280 2932 c0 -2 5 -12 10 -23 15 -28 50 -25 50 5 0 19 -5 23 -30 22
-16 -1 -30 -2 -30 -4z"/>
<path d="M5350 2756 c0 -8 23 -41 51 -73 77 -87 111 -145 159 -268 40 -102 98
-389 102 -506 l3 -65 -79 -87 c-43 -48 -82 -87 -86 -87 -4 0 -36 -27 -70 -60
-93 -89 -236 -188 -407 -281 -106 -57 -103 -55 -153 -77 -25 -11 -61 -27 -82
-36 -20 -9 -41 -16 -48 -16 -10 0 -115 -32 -167 -51 -25 -9 -32 -49 -10 -49
23 0 129 30 156 44 30 16 61 29 111 46 46 17 157 71 245 120 39 22 89 49 111
60 23 12 59 36 80 54 22 18 55 43 75 57 47 31 139 112 255 224 52 49 103 93
114 97 26 9 26 43 1 102 -11 25 -23 61 -27 81 -3 19 -10 35 -15 35 -5 0 -9 18
-9 40 0 33 4 42 23 49 12 5 28 6 35 4 6 -3 12 -2 12 1 0 13 -29 63 -44 75 -8
7 -22 34 -32 62 -10 27 -22 49 -26 49 -4 0 -8 13 -8 29 0 17 -4 32 -9 35 -5 3
-15 29 -22 58 -6 29 -23 73 -36 99 -12 26 -23 54 -23 62 0 9 -4 19 -10 22 -5
3 -10 14 -10 24 0 10 -6 24 -14 30 -8 7 -18 26 -21 42 -5 21 -14 31 -33 36
-15 3 -36 12 -47 19 -25 18 -45 18 -45 0z"/>
<path d="M5740 2676 c0 -18 34 -56 50 -56 17 0 11 14 -20 43 -22 21 -30 25
-30 13z"/>
<path d="M5830 2585 c0 -16 39 -75 65 -98 13 -12 32 -30 42 -39 10 -9 32 -35
48 -57 27 -35 60 -59 70 -49 6 5 -57 79 -142 168 -46 46 -83 80 -83 75z"/>
<path d="M6095 2296 c19 -19 35 -41 35 -50 0 -9 -17 -24 -38 -35 -21 -11 -70
-47 -108 -81 -38 -33 -76 -67 -84 -74 -8 -7 -27 -21 -42 -30 -26 -17 -28 -17
-45 3 -9 12 -21 21 -25 21 -5 0 -8 -69 -8 -154 0 -151 -9 -195 -29 -144 l-10
23 0 -22 c-1 -22 31 -64 46 -62 8 0 105 -278 105 -301 0 -18 -30 -239 -51
-375 -9 -60 -7 -91 25 -325 19 -143 38 -240 64 -335 18 -68 53 -208 79 -320 5
-25 12 -31 39 -33 26 -3 32 0 32 17 0 11 -4 22 -9 25 -4 3 -11 23 -15 45 -3
22 -9 46 -12 55 -8 21 46 22 86 1 33 -17 60 -11 60 15 0 10 -5 87 -10 172 -17
256 -37 404 -72 543 -11 44 -23 98 -27 120 -5 22 -15 57 -24 77 -12 30 -22 38
-51 43 -29 6 -36 12 -41 39 -8 36 -23 90 -37 125 -5 13 -13 101 -19 195 -6 94
-11 180 -12 191 -2 16 3 20 23 18 118 -9 118 -9 143 40 22 43 35 46 61 15 10
-13 32 -37 48 -54 23 -24 31 -44 34 -80 2 -27 8 -78 14 -114 6 -36 15 -117 20
-180 5 -63 16 -169 25 -235 10 -66 21 -151 25 -190 4 -38 11 -88 14 -110 3
-22 10 -69 16 -105 5 -36 14 -99 21 -140 20 -134 29 -212 44 -365 8 -82 15
-153 15 -157 0 -5 29 -8 65 -8 l65 0 -1 43 c0 47 -10 139 -34 327 -36 276 -34
264 -66 420 -19 89 -32 207 -26 223 5 13 19 17 52 17 25 0 45 4 45 9 0 16 59
-9 75 -32 9 -13 15 -44 15 -79 0 -32 4 -77 10 -100 5 -24 21 -90 34 -148 14
-58 27 -130 30 -160 3 -30 9 -73 15 -95 49 -201 59 -249 71 -345 5 -41 9 -76
9 -77 1 -2 78 -3 171 -3 l170 0 0 27 c0 14 -7 62 -15 107 -9 45 -21 108 -27
141 -6 33 -20 94 -31 135 -11 41 -22 85 -24 98 -3 12 -9 25 -14 28 -5 3 -9 14
-9 26 0 11 -15 52 -34 91 -19 40 -40 92 -47 117 -7 25 -16 50 -20 55 -6 9 -20
64 -40 160 -12 59 -25 113 -44 175 -8 30 -20 75 -25 100 -5 25 -13 63 -18 85
-6 22 -17 74 -25 115 -22 107 -60 213 -108 302 -5 10 -9 30 -9 44 0 24 3 26
30 21 41 -9 58 0 65 34 10 43 -15 74 -69 88 -94 23 -137 6 -106 -42 31 -50 58
-108 65 -139 15 -62 7 -183 -16 -240 -23 -60 -64 -118 -82 -118 -7 0 -34 42
-62 92 -27 50 -71 117 -97 148 -27 32 -48 62 -48 67 0 4 -20 31 -45 60 -42 48
-55 73 -37 73 4 0 34 25 67 56 33 30 79 66 103 80 23 14 42 30 42 34 0 5 -14
19 -31 32 -16 13 -53 46 -82 73 -29 28 -68 61 -87 75 -19 13 -57 48 -84 77
-26 29 -54 53 -62 53 -8 0 1 -15 21 -34z m302 -953 c23 -49 24 -56 13 -103 -7
-28 -17 -49 -23 -47 -6 2 -29 24 -51 50 -42 50 -46 72 -32 152 13 69 15 71 42
34 14 -19 37 -58 51 -86z m93 -271 c0 -7 -8 -7 -27 0 -28 11 -62 65 -55 86 4
12 82 -70 82 -86z"/>
<path d="M5301 2304 c0 -11 3 -14 6 -6 3 7 2 16 -1 19 -3 4 -6 -2 -5 -13z"/>
<path d="M3640 1834 c0 -9 5 -14 12 -12 18 6 21 28 4 28 -9 0 -16 -7 -16 -16z"/>
<path d="M6315 1807 c-4 -9 2 -24 16 -38 l22 -22 -7 29 c-10 38 -24 52 -31 31z"/>
<path d="M2920 1753 c0 -5 5 -15 10 -23 8 -12 10 -11 10 8 0 12 -4 22 -10 22
-5 0 -10 -3 -10 -7z"/>
<path d="M2925 1660 c-5 -7 20 -40 31 -40 2 0 4 9 4 19 0 20 -26 36 -35 21z"/>
<path d="M6450 1615 c0 -8 5 -15 10 -15 6 0 10 7 10 15 0 8 -4 15 -10 15 -5 0
-10 -7 -10 -15z"/>
<path d="M2520 1512 c0 -5 6 -17 14 -28 12 -15 17 -16 27 -7 10 10 9 15 -1 28
-13 16 -40 21 -40 7z"/>
<path d="M2525 1428 c4 -18 11 -37 16 -42 15 -16 31 9 27 40 -2 22 -9 30 -26
32 -22 3 -23 1 -17 -30z"/>
<path d="M2565 1341 c-5 -17 -10 -20 -20 -11 -10 8 -15 8 -20 0 -12 -19 4 -60
23 -60 23 0 47 53 34 76 -9 15 -10 15 -17 -5z"/>
<path d="M2587 1293 c-14 -13 -7 -63 8 -63 10 0 15 11 15 35 0 33 -8 43 -23
28z"/>
<path d="M4650 1254 c0 -8 5 -12 10 -9 6 4 8 11 5 16 -9 14 -15 11 -15 -7z"/>
<path d="M2425 1241 c-3 -6 3 -14 12 -20 14 -8 18 -21 16 -68 -2 -60 -4 -71
-46 -213 -14 -47 -37 -134 -51 -195 -14 -60 -30 -126 -36 -145 -5 -19 -21 -86
-36 -148 -14 -62 -30 -115 -35 -118 -5 -3 -9 -16 -9 -29 0 -13 -4 -34 -9 -47
-5 -13 -14 -43 -21 -68 -6 -25 -18 -65 -26 -90 -8 -25 -14 -57 -14 -72 l0 -28
304 0 304 0 -8 33 c-21 89 -51 193 -79 273 -33 94 -39 143 -18 148 6 2 35 11
62 20 75 24 80 23 94 -36 7 -29 22 -80 33 -113 12 -33 27 -94 33 -135 12 -73
13 -69 11 105 l-1 180 -28 0 c-23 0 -31 7 -43 34 -8 18 -14 39 -14 46 0 7 -7
29 -15 48 l-15 35 -47 -18 c-27 -11 -60 -22 -75 -25 -15 -3 -33 -11 -40 -18
-38 -39 -103 -50 -112 -19 -3 10 -6 42 -6 72 0 30 -5 81 -12 114 -11 48 -11
75 0 150 7 50 17 138 24 196 10 97 9 105 -7 115 -10 5 -27 18 -37 28 -20 19
-44 22 -53 8z"/>
<path d="M2617 1223 c-11 -10 -8 -43 3 -43 6 0 10 11 10 25 0 26 -2 29 -13 18z"/>
<path d="M4540 1190 c0 -5 7 -7 15 -4 8 4 15 8 15 10 0 2 -7 4 -15 4 -8 0 -15
-4 -15 -10z"/>
<path d="M696 1068 l-8 -117 -37 -18 c-49 -25 -149 -146 -157 -192 -4 -20 -28
-81 -54 -136 -26 -55 -55 -122 -64 -148 -9 -27 -24 -63 -33 -80 -9 -18 -20
-50 -24 -72 -15 -78 -21 -100 -29 -120 -5 -11 -11 -49 -13 -85 -2 -36 -7 -73
-12 -82 -6 -14 -2 -18 16 -18 23 0 24 3 21 59 -3 42 1 69 14 92 9 19 27 66 40
105 12 39 31 93 42 120 10 27 25 67 31 89 11 37 52 123 87 185 7 14 14 42 14
62 0 28 8 47 33 75 48 55 70 76 100 96 23 15 27 15 27 2 0 -9 7 -18 15 -21 8
-4 15 -12 15 -20 0 -8 5 -14 11 -14 7 0 9 14 5 43 -4 23 -11 96 -16 162 -14
164 -15 167 -24 33z"/>
<path d="M2642 1140 c0 -19 2 -27 5 -17 2 9 2 25 0 35 -3 9 -5 1 -5 -18z"/>
<path d="M466 1026 c-14 -19 -26 -39 -26 -45 0 -6 -4 -11 -8 -11 -5 0 -14 -10
-20 -22 -12 -24 -33 -58 -89 -143 -17 -27 -58 -104 -90 -172 -37 -79 -62 -121
-70 -118 -7 3 -19 7 -26 10 -9 4 -19 -8 -29 -32 -9 -21 -29 -72 -46 -113 -56
-136 -62 -160 -62 -272 l0 -108 80 0 79 0 7 38 c4 20 10 42 14 47 4 6 10 35
12 67 4 50 18 87 79 210 5 10 9 27 9 38 0 20 3 27 34 87 9 17 16 38 16 47 0 9
4 24 8 34 42 85 52 109 52 118 0 6 7 17 15 24 8 7 15 21 15 31 0 11 3 19 8 19
9 0 32 72 32 100 0 11 25 45 56 76 31 30 53 58 51 61 -3 3 -32 -21 -65 -54
-42 -42 -64 -74 -78 -113 -10 -30 -22 -56 -26 -58 -5 -2 -8 -15 -8 -28 0 -13
-4 -24 -10 -24 -5 0 -10 -7 -10 -14 0 -8 -10 -26 -23 -40 -13 -14 -36 -67 -53
-121 -16 -52 -34 -95 -39 -95 -6 0 -20 6 -30 14 -18 13 -18 15 8 67 14 30 40
90 57 133 28 73 104 206 122 214 5 2 8 10 8 18 0 16 33 77 66 121 26 34 29 43
15 43 -5 0 -20 -15 -35 -34z"/>
<path d="M2690 870 c0 -5 5 -10 10 -10 6 0 10 5 10 10 0 6 -4 10 -10 10 -5 0
-10 -4 -10 -10z"/>
<path d="M705 780 c-3 -5 3 -10 15 -10 12 0 18 5 15 10 -3 6 -10 10 -15 10 -5
0 -12 -4 -15 -10z"/>
<path d="M2590 770 c0 -5 5 -10 10 -10 6 0 10 5 10 10 0 6 -4 10 -10 10 -5 0
-10 -4 -10 -10z"/>
<path d="M4145 761 c33 -20 40 -19 32 4 -4 8 -18 15 -34 15 l-28 0 30 -19z"/>
<path d="M663 745 c-15 -16 -16 -25 -5 -25 4 0 13 9 20 20 14 23 3 26 -15 5z"/>
<path d="M7961 684 c0 -11 3 -14 6 -6 3 7 2 16 -1 19 -3 4 -6 -2 -5 -13z"/>
<path d="M4150 671 c0 -10 -7 -21 -15 -25 -27 -10 -15 -26 20 -26 36 0 44 15
29 54 -9 22 -34 20 -34 -3z"/>
<path d="M560 539 c0 -11 4 -18 10 -14 5 3 7 12 3 20 -7 21 -13 19 -13 -6z"/>
<path d="M541 484 c0 -11 3 -14 6 -6 3 7 2 16 -1 19 -3 4 -6 -2 -5 -13z"/>
<path d="M516 421 c-4 -7 -5 -15 -2 -18 9 -9 19 4 14 18 -4 11 -6 11 -12 0z"/>
<path d="M490 349 c0 -24 4 -38 10 -34 6 3 10 22 10 41 0 19 -4 34 -10 34 -5
0 -10 -18 -10 -41z"/>
<path d="M7821 334 c0 -11 3 -14 6 -6 3 7 2 16 -1 19 -3 4 -6 -2 -5 -13z"/>
<path d="M470 276 c0 -31 6 -34 13 -6 3 11 1 23 -4 26 -5 3 -9 -6 -9 -20z"/>
<path d="M451 214 c0 -11 3 -14 6 -6 3 7 2 16 -1 19 -3 4 -6 -2 -5 -13z"/>
<path d="M420 145 c0 -15 4 -24 10 -20 6 3 10 12 10 20 0 8 -4 17 -10 20 -6 4
-10 -5 -10 -20z"/>
<path d="M402 85 c0 -16 2 -22 5 -12 2 9 2 23 0 30 -3 6 -5 -1 -5 -18z"/>
<path d="M377 43 c-11 -10 -8 -43 3 -43 6 0 10 11 10 25 0 26 -2 29 -13 18z"/>
</g>
</svg>
